<svg xmlns="http://www.w3.org/2000/svg" xmlns:xlink="http://www.w3.org/1999/xlink" width="2000" zoomAndPan="magnify" viewBox="0 0 1500 353.999987" height="472" preserveAspectRatio="xMidYMid meet" version="1.0"><defs><g/></defs><g fill="#2f4a43" fill-opacity="1"><g transform="translate(16.566622, 205.800119)"><g><path d="M 44.875 -168.3125 L 44.875 0 L 12.046875 0 L 12.046875 -168.3125 Z M 44.875 -168.3125 "/></g></g></g><g fill="#2f4a43" fill-opacity="1"><g transform="translate(102.064166, 205.800119)"><g><path d="M 35.71875 -172.78125 L 124.34375 -55.140625 L 124.78125 -55.140625 L 124.78125 -168.3125 L 157.609375 -168.3125 L 157.609375 3.34375 L 133.9375 3.34375 L 45.3125 -114.296875 L 44.875 -114.296875 L 44.875 0 L 12.046875 0 L 12.046875 -172.78125 Z M 35.71875 -172.78125 "/></g></g></g><g fill="#2f4a43" fill-opacity="1"><g transform="translate(300.29269, 205.800119)"><g><path d="M 100.671875 -168.3125 L 100.671875 -139.75 L 66.75 -139.75 L 66.75 0 L 33.9375 0 L 33.9375 -139.75 L 0 -139.75 L 0 -168.3125 Z M 100.671875 -168.3125 "/></g></g></g><g fill="#2f4a43" fill-opacity="1"><g transform="translate(429.766507, 205.800119)"><g><path d="M 99.109375 -168.3125 L 99.109375 -139.75 L 44.875 -139.75 L 44.875 -102.6875 L 97.109375 -102.6875 L 97.109375 -74.109375 L 44.875 -74.109375 L 44.875 -28.578125 L 99.109375 -28.578125 L 99.109375 0 L 12.046875 0 L 12.046875 -168.3125 Z M 99.109375 -168.3125 "/></g></g></g><g fill="#2f4a43" fill-opacity="1"><g transform="translate(567.499804, 205.800119)"><g><path d="M 57.375 -168.3125 C 75.082031 -168.3125 88.734375 -163.957031 98.328125 -155.25 C 107.929688 -146.550781 112.734375 -134.015625 112.734375 -117.640625 C 112.734375 -105.734375 109.492188 -95.351562 103.015625 -86.5 C 96.546875 -77.644531 88.328125 -72.472656 78.359375 -70.984375 L 125.90625 0 L 86.171875 0 L 45.3125 -67.859375 L 44.875 -67.859375 L 44.875 0 L 12.046875 0 L 12.046875 -168.3125 Z M 44.875 -90.859375 L 48.4375 -90.859375 C 59.75 -90.859375 67.820312 -92.941406 72.65625 -97.109375 C 77.5 -101.273438 79.921875 -107.820312 79.921875 -116.75 C 79.921875 -125.53125 77.535156 -131.851562 72.765625 -135.71875 C 68.003906 -139.59375 60.046875 -141.53125 48.890625 -141.53125 L 44.875 -141.53125 Z M 44.875 -90.859375 "/></g></g></g><g fill="#2f4a43" fill-opacity="1"><g transform="translate(720.859184, 205.800119)"><g><path d="M 54.015625 -172.78125 L 95.546875 -61.828125 L 135.28125 -172.78125 L 158.9375 -172.78125 L 184.171875 0 L 151.125 0 L 137.734375 -104.46875 L 137.296875 -104.46875 L 99.109375 2.234375 L 87.734375 2.234375 L 50.890625 -104.46875 L 50.453125 -104.46875 L 35.5 0 L 2.453125 0 L 30.8125 -172.78125 Z M 54.015625 -172.78125 "/></g></g></g><g fill="#2f4a43" fill-opacity="1"><g transform="translate(936.276387, 205.800119)"><g><path d="M 99.109375 -168.3125 L 99.109375 -139.75 L 44.875 -139.75 L 44.875 -102.6875 L 97.109375 -102.6875 L 97.109375 -74.109375 L 44.875 -74.109375 L 44.875 -28.578125 L 99.109375 -28.578125 L 99.109375 0 L 12.046875 0 L 12.046875 -168.3125 Z M 99.109375 -168.3125 "/></g></g></g><g fill="#2f4a43" fill-opacity="1"><g transform="translate(1074.009684, 205.800119)"><g><path d="M 60.046875 -168.3125 C 69.867188 -168.3125 79.765625 -166.453125 89.734375 -162.734375 C 99.710938 -159.015625 108.609375 -153.285156 116.421875 -145.546875 C 124.234375 -137.804688 130.144531 -128.613281 134.15625 -117.96875 C 138.175781 -107.332031 140.1875 -95.988281 140.1875 -83.9375 C 140.1875 -67.71875 136.578125 -53.171875 129.359375 -40.296875 C 122.140625 -27.421875 112.351562 -17.484375 100 -10.484375 C 87.65625 -3.492188 74.265625 0 59.828125 0 L 12.046875 0 L 12.046875 -168.3125 Z M 44.875 -28.578125 L 49.5625 -28.578125 C 68.601562 -28.578125 82.8125 -33.226562 92.1875 -42.53125 C 101.570312 -51.832031 106.265625 -65.707031 106.265625 -84.15625 C 106.265625 -102.3125 101.648438 -116.113281 92.421875 -125.5625 C 83.191406 -135.019531 68.90625 -139.75 49.5625 -139.75 L 44.875 -139.75 Z M 44.875 -28.578125 "/></g></g></g><g fill="#2f4a43" fill-opacity="1"><g transform="translate(1247.013302, 205.800119)"><g><path d="M 44.875 -168.3125 L 44.875 0 L 12.046875 0 L 12.046875 -168.3125 Z M 44.875 -168.3125 "/></g></g></g><g fill="#2f4a43" fill-opacity="1"><g transform="translate(1332.510824, 205.800119)"><g><path d="M 89.078125 -172.78125 L 152.921875 0 L 117.875 0 L 104.921875 -35.5 L 46.4375 -35.5 L 32.59375 0 L -2.015625 0 L 63.625 -172.78125 Z M 55.8125 -62.28125 L 95.765625 -62.28125 L 74.78125 -123.453125 L 74.34375 -123.453125 Z M 55.8125 -62.28125 "/></g></g></g><path stroke-linecap="butt" transform="matrix(0.75, 0, 0, 0.75, 28.537984, 244.993178)" fill="none" stroke-linejoin="miter" d="M 0.00143827 1.998679 L 1947.376593 1.998679 " stroke="#737373" stroke-width="4" stroke-opacity="1" stroke-miterlimit="4"/><g fill="#737373" fill-opacity="1"><g transform="translate(18.269558, 332.550648)"><g><path d="M 36.625 -60.40625 L 53 0 L 45.875 0 L 41.671875 -16.359375 L 17.046875 -16.359375 L 7.5 0 L 0.453125 0 Z M 20.5625 -22.328125 L 40.0625 -22.328125 L 34.109375 -45.421875 Z M 8.71875 -57.65625 Z M 8.71875 -57.65625 "/></g></g></g><g fill="#737373" fill-opacity="1"><g transform="translate(71.718429, 332.550648)"><g><path d="M 36.46875 -25.234375 L 36.328125 -25.234375 C 35.203125 -27.066406 33.796875 -28.53125 32.109375 -29.625 C 30.429688 -30.726562 28.367188 -31.28125 25.921875 -31.28125 C 22.046875 -31.28125 18.601562 -29.6875 15.59375 -26.5 C 12.59375 -23.3125 11.09375 -19.675781 11.09375 -15.59375 C 11.09375 -12.382812 12.070312 -9.757812 14.03125 -7.71875 C 15.988281 -5.6875 18.5 -4.671875 21.5625 -4.671875 C 24.21875 -4.671875 26.550781 -5.21875 28.5625 -6.3125 C 30.570312 -7.40625 32.472656 -8.921875 34.265625 -10.859375 L 34.40625 -10.859375 L 33.1875 -2.671875 C 31.195312 -1.503906 29.21875 -0.601562 27.25 0.03125 C 25.289062 0.675781 23.242188 1 21.109375 1 C 16.316406 1 12.398438 -0.476562 9.359375 -3.4375 C 6.328125 -6.394531 4.8125 -10.171875 4.8125 -14.765625 C 4.8125 -18.734375 5.867188 -22.425781 7.984375 -25.84375 C 10.109375 -29.257812 12.898438 -31.960938 16.359375 -33.953125 C 19.828125 -35.941406 23.445312 -36.9375 27.21875 -36.9375 C 29.3125 -36.9375 31.1875 -36.65625 32.84375 -36.09375 C 34.5 -35.53125 36.144531 -34.613281 37.78125 -33.34375 Z M 36.46875 -25.234375 "/></g></g></g><g fill="#737373" fill-opacity="1"><g transform="translate(107.198018, 332.550648)"><g><path d="M 5.203125 -14.765625 C 5.203125 -18.628906 6.257812 -22.296875 8.375 -25.765625 C 10.488281 -29.234375 13.238281 -31.960938 16.625 -33.953125 C 20.019531 -35.941406 23.578125 -36.9375 27.296875 -36.9375 C 32.035156 -36.9375 35.910156 -35.414062 38.921875 -32.375 C 41.929688 -29.34375 43.4375 -25.507812 43.4375 -20.875 C 43.4375 -17.15625 42.398438 -13.585938 40.328125 -10.171875 C 38.265625 -6.753906 35.515625 -4.035156 32.078125 -2.015625 C 28.640625 -0.00390625 25.035156 1 21.265625 1 C 18.203125 1 15.457031 0.320312 13.03125 -1.03125 C 10.613281 -2.382812 8.703125 -4.269531 7.296875 -6.6875 C 5.898438 -9.113281 5.203125 -11.804688 5.203125 -14.765625 Z M 26.3125 -31.28125 C 22.332031 -31.28125 18.847656 -29.722656 15.859375 -26.609375 C 12.878906 -23.503906 11.390625 -19.832031 11.390625 -15.59375 C 11.390625 -12.382812 12.382812 -9.757812 14.375 -7.71875 C 16.363281 -5.6875 18.960938 -4.671875 22.171875 -4.671875 C 26.253906 -4.671875 29.785156 -6.210938 32.765625 -9.296875 C 35.742188 -12.378906 37.234375 -16.035156 37.234375 -20.265625 C 37.234375 -23.523438 36.238281 -26.175781 34.25 -28.21875 C 32.269531 -30.257812 29.625 -31.28125 26.3125 -31.28125 Z M 26.3125 -31.28125 "/></g></g></g><g fill="#737373" fill-opacity="1"><g transform="translate(150.17122, 332.550648)"><g><path d="M 35.5625 -30.96875 C 36.882812 -32.851562 38.578125 -34.316406 40.640625 -35.359375 C 42.703125 -36.410156 44.90625 -36.9375 47.25 -36.9375 C 50.519531 -36.9375 52.914062 -36.039062 54.4375 -34.25 C 55.96875 -32.46875 56.734375 -29.867188 56.734375 -26.453125 C 56.734375 -25.078125 56.632812 -23.675781 56.4375 -22.25 L 52.921875 0 L 46.796875 0 L 50.15625 -21.265625 C 50.414062 -22.835938 50.546875 -24.132812 50.546875 -25.15625 C 50.546875 -27.445312 50.085938 -29.039062 49.171875 -29.9375 C 48.253906 -30.832031 46.898438 -31.28125 45.109375 -31.28125 C 39.910156 -31.28125 36.703125 -27.328125 35.484375 -19.421875 L 32.421875 0 L 26.3125 0 L 29.515625 -20.5 C 29.773438 -22.28125 29.90625 -23.707031 29.90625 -24.78125 C 29.945312 -29.113281 28.238281 -31.28125 24.78125 -31.28125 C 22.070312 -31.28125 19.898438 -30.207031 18.265625 -28.0625 C 16.640625 -25.925781 15.492188 -22.789062 14.828125 -18.65625 L 11.921875 0 L 5.8125 0 L 11.46875 -35.9375 L 17.59375 -35.9375 L 16.96875 -32.046875 L 17.125 -32.046875 C 18.300781 -33.523438 19.71875 -34.707031 21.375 -35.59375 C 23.03125 -36.488281 24.75 -36.9375 26.53125 -36.9375 C 28.78125 -36.9375 30.664062 -36.410156 32.1875 -35.359375 C 33.71875 -34.316406 34.84375 -32.851562 35.5625 -30.96875 Z M 35.5625 -30.96875 "/></g></g></g><g fill="#737373" fill-opacity="1"><g transform="translate(208.89616, 332.550648)"><g><path d="M 12.546875 -5.046875 L 12.390625 -5.046875 L 8.40625 20.1875 L 2.296875 20.1875 L 11.171875 -35.9375 L 17.28125 -35.9375 L 16.515625 -30.8125 L 16.671875 -30.8125 C 20.492188 -34.894531 24.925781 -36.9375 29.96875 -36.9375 C 34.40625 -36.9375 37.9375 -35.484375 40.5625 -32.578125 C 43.1875 -29.671875 44.5 -25.921875 44.5 -21.328125 C 44.5 -17.710938 43.644531 -14.171875 41.9375 -10.703125 C 40.226562 -7.234375 37.796875 -4.414062 34.640625 -2.25 C 31.484375 -0.0820312 27.890625 1 23.859375 1 C 21.410156 1 19.203125 0.488281 17.234375 -0.53125 C 15.273438 -1.550781 13.710938 -3.054688 12.546875 -5.046875 Z M 27.828125 -31.28125 C 24.160156 -31.28125 20.9375 -29.710938 18.15625 -26.578125 C 15.382812 -23.441406 14 -19.753906 14 -15.515625 C 14 -12.410156 14.835938 -9.835938 16.515625 -7.796875 C 18.203125 -5.753906 20.625 -4.710938 23.78125 -4.671875 C 26.632812 -4.671875 29.171875 -5.445312 31.390625 -7 C 33.609375 -8.550781 35.300781 -10.585938 36.46875 -13.109375 C 37.644531 -15.640625 38.234375 -18.253906 38.234375 -20.953125 C 38.234375 -23.859375 37.351562 -26.304688 35.59375 -28.296875 C 33.832031 -30.285156 31.242188 -31.28125 27.828125 -31.28125 Z M 27.828125 -31.28125 "/></g></g></g><g fill="#737373" fill-opacity="1"><g transform="translate(253.016335, 332.550648)"><g><path d="M 37.390625 -30.8125 L 38.15625 -35.9375 L 44.28125 -35.9375 L 38.609375 0 L 32.5 0 L 33.265625 -4.96875 L 33.109375 -4.96875 C 29.335938 -0.988281 24.878906 1 19.734375 1 C 15.398438 1 11.90625 -0.453125 9.25 -3.359375 C 6.601562 -6.265625 5.28125 -9.910156 5.28125 -14.296875 C 5.28125 -17.972656 6.132812 -21.554688 7.84375 -25.046875 C 9.550781 -28.535156 11.984375 -31.390625 15.140625 -33.609375 C 18.296875 -35.828125 21.863281 -36.9375 25.84375 -36.9375 C 28.289062 -36.9375 30.492188 -36.398438 32.453125 -35.328125 C 34.421875 -34.253906 36.015625 -32.75 37.234375 -30.8125 Z M 25.609375 -31.28125 C 21.835938 -31.28125 18.578125 -29.6875 15.828125 -26.5 C 13.078125 -23.3125 11.703125 -19.675781 11.703125 -15.59375 C 11.703125 -12.332031 12.601562 -9.695312 14.40625 -7.6875 C 16.21875 -5.675781 18.578125 -4.671875 21.484375 -4.671875 C 24.597656 -4.671875 27.265625 -5.519531 29.484375 -7.21875 C 31.703125 -8.925781 33.332031 -11.015625 34.375 -13.484375 C 35.414062 -15.960938 35.9375 -18.425781 35.9375 -20.875 C 35.9375 -23.882812 35.03125 -26.367188 33.21875 -28.328125 C 31.414062 -30.296875 28.878906 -31.28125 25.609375 -31.28125 Z M 25.609375 -31.28125 "/></g></g></g><g fill="#737373" fill-opacity="1"><g transform="translate(297.136509, 332.550648)"><g><path d="M 34.5625 0 L 28.453125 0 L 31.734375 -20.796875 C 31.984375 -22.679688 32.109375 -24.132812 32.109375 -25.15625 C 32.109375 -27.394531 31.570312 -28.972656 30.5 -29.890625 C 29.4375 -30.816406 27.859375 -31.28125 25.765625 -31.28125 C 22.660156 -31.28125 20.226562 -30.179688 18.46875 -27.984375 C 16.707031 -25.796875 15.445312 -22.332031 14.6875 -17.59375 L 11.921875 0 L 5.8125 0 L 11.46875 -35.9375 L 17.59375 -35.9375 L 16.90625 -31.578125 L 17.046875 -31.578125 C 18.628906 -33.316406 20.347656 -34.644531 22.203125 -35.5625 C 24.066406 -36.476562 26.046875 -36.9375 28.140625 -36.9375 C 31.753906 -36.882812 34.363281 -35.988281 35.96875 -34.25 C 37.582031 -32.519531 38.390625 -29.921875 38.390625 -26.453125 C 38.390625 -25.742188 38.335938 -24.863281 38.234375 -23.8125 C 38.128906 -22.769531 38.003906 -21.816406 37.859375 -20.953125 Z M 41.671875 -51.234375 C 40.554688 -49.296875 39.171875 -47.78125 37.515625 -46.6875 C 35.859375 -45.59375 34.210938 -45.046875 32.578125 -45.046875 C 31.609375 -45.046875 30.675781 -45.222656 29.78125 -45.578125 C 28.894531 -45.929688 28.019531 -46.335938 27.15625 -46.796875 C 26.28125 -47.203125 25.410156 -47.582031 24.546875 -47.9375 C 23.679688 -48.300781 22.84375 -48.484375 22.03125 -48.484375 C 21.257812 -48.484375 20.539062 -48.226562 19.875 -47.71875 C 19.21875 -47.207031 18.484375 -46.289062 17.671875 -44.96875 L 14.375 -47.953125 C 16.007812 -50.140625 17.515625 -51.691406 18.890625 -52.609375 C 20.265625 -53.523438 21.71875 -53.984375 23.25 -53.984375 C 24.320312 -53.984375 25.34375 -53.804688 26.3125 -53.453125 C 27.28125 -53.097656 28.222656 -52.691406 29.140625 -52.234375 L 31.578125 -51 C 32.296875 -50.644531 32.960938 -50.46875 33.578125 -50.46875 C 34.441406 -50.46875 35.253906 -50.75 36.015625 -51.3125 C 36.785156 -51.875 37.628906 -52.816406 38.546875 -54.140625 Z M 41.671875 -51.234375 "/></g></g></g><g fill="#737373" fill-opacity="1"><g transform="translate(337.509911, 332.550648)"><g><path d="M 37.390625 -30.8125 L 38.15625 -35.9375 L 44.28125 -35.9375 L 38.609375 0 L 32.5 0 L 33.265625 -4.96875 L 33.109375 -4.96875 C 29.335938 -0.988281 24.878906 1 19.734375 1 C 15.398438 1 11.90625 -0.453125 9.25 -3.359375 C 6.601562 -6.265625 5.28125 -9.910156 5.28125 -14.296875 C 5.28125 -17.972656 6.132812 -21.554688 7.84375 -25.046875 C 9.550781 -28.535156 11.984375 -31.390625 15.140625 -33.609375 C 18.296875 -35.828125 21.863281 -36.9375 25.84375 -36.9375 C 28.289062 -36.9375 30.492188 -36.398438 32.453125 -35.328125 C 34.421875 -34.253906 36.015625 -32.75 37.234375 -30.8125 Z M 25.609375 -31.28125 C 21.835938 -31.28125 18.578125 -29.6875 15.828125 -26.5 C 13.078125 -23.3125 11.703125 -19.675781 11.703125 -15.59375 C 11.703125 -12.332031 12.601562 -9.695312 14.40625 -7.6875 C 16.21875 -5.675781 18.578125 -4.671875 21.484375 -4.671875 C 24.597656 -4.671875 27.265625 -5.519531 29.484375 -7.21875 C 31.703125 -8.925781 33.332031 -11.015625 34.375 -13.484375 C 35.414062 -15.960938 35.9375 -18.425781 35.9375 -20.875 C 35.9375 -23.882812 35.03125 -26.367188 33.21875 -28.328125 C 31.414062 -30.296875 28.878906 -31.28125 25.609375 -31.28125 Z M 25.609375 -31.28125 "/></g></g></g><g fill="#737373" fill-opacity="1"><g transform="translate(381.630086, 332.550648)"><g><path d="M 35.5625 -30.96875 C 36.882812 -32.851562 38.578125 -34.316406 40.640625 -35.359375 C 42.703125 -36.410156 44.90625 -36.9375 47.25 -36.9375 C 50.519531 -36.9375 52.914062 -36.039062 54.4375 -34.25 C 55.96875 -32.46875 56.734375 -29.867188 56.734375 -26.453125 C 56.734375 -25.078125 56.632812 -23.675781 56.4375 -22.25 L 52.921875 0 L 46.796875 0 L 50.15625 -21.265625 C 50.414062 -22.835938 50.546875 -24.132812 50.546875 -25.15625 C 50.546875 -27.445312 50.085938 -29.039062 49.171875 -29.9375 C 48.253906 -30.832031 46.898438 -31.28125 45.109375 -31.28125 C 39.910156 -31.28125 36.703125 -27.328125 35.484375 -19.421875 L 32.421875 0 L 26.3125 0 L 29.515625 -20.5 C 29.773438 -22.28125 29.90625 -23.707031 29.90625 -24.78125 C 29.945312 -29.113281 28.238281 -31.28125 24.78125 -31.28125 C 22.070312 -31.28125 19.898438 -30.207031 18.265625 -28.0625 C 16.640625 -25.925781 15.492188 -22.789062 14.828125 -18.65625 L 11.921875 0 L 5.8125 0 L 11.46875 -35.9375 L 17.59375 -35.9375 L 16.96875 -32.046875 L 17.125 -32.046875 C 18.300781 -33.523438 19.71875 -34.707031 21.375 -35.59375 C 23.03125 -36.488281 24.75 -36.9375 26.53125 -36.9375 C 28.78125 -36.9375 30.664062 -36.410156 32.1875 -35.359375 C 33.71875 -34.316406 34.84375 -32.851562 35.5625 -30.96875 Z M 35.5625 -30.96875 "/></g></g></g><g fill="#737373" fill-opacity="1"><g transform="translate(440.355003, 332.550648)"><g><path d="M 13.375 -48.859375 C 13.375 -50.140625 13.921875 -51.285156 15.015625 -52.296875 C 16.117188 -53.316406 17.28125 -53.828125 18.5 -53.828125 C 19.570312 -53.828125 20.460938 -53.484375 21.171875 -52.796875 C 21.890625 -52.109375 22.25 -51.253906 22.25 -50.234375 C 22.25 -48.910156 21.738281 -47.722656 20.71875 -46.671875 C 19.695312 -45.628906 18.5 -45.109375 17.125 -45.109375 C 16.050781 -45.109375 15.15625 -45.453125 14.4375 -46.140625 C 13.726562 -46.835938 13.375 -47.742188 13.375 -48.859375 Z M 18.734375 -35.9375 L 13.078125 0 L 6.953125 0 L 12.625 -35.9375 Z M 18.734375 -35.9375 "/></g></g></g><g fill="#737373" fill-opacity="1"><g transform="translate(460.3888, 332.550648)"><g><path d="M 39.765625 -16.671875 L 11.546875 -16.671875 C 11.492188 -16.210938 11.453125 -15.84375 11.421875 -15.5625 C 11.398438 -15.28125 11.390625 -15.015625 11.390625 -14.765625 C 11.390625 -11.804688 12.296875 -9.382812 14.109375 -7.5 C 15.921875 -5.613281 18.328125 -4.671875 21.328125 -4.671875 C 23.628906 -4.671875 25.75 -5.253906 27.6875 -6.421875 C 29.625 -7.597656 31.5625 -9.484375 33.5 -12.078125 L 38.234375 -9.09375 C 36.046875 -5.882812 33.367188 -3.398438 30.203125 -1.640625 C 27.046875 0.117188 23.628906 1 19.953125 1 C 15.472656 1 11.867188 -0.375 9.140625 -3.125 C 6.410156 -5.882812 5.046875 -9.457031 5.046875 -13.84375 C 5.046875 -17.613281 5.882812 -21.269531 7.5625 -24.8125 C 9.25 -28.351562 11.695312 -31.257812 14.90625 -33.53125 C 18.125 -35.800781 21.769531 -36.9375 25.84375 -36.9375 C 30.28125 -36.9375 33.8125 -35.570312 36.4375 -32.84375 C 39.0625 -30.113281 40.375 -26.457031 40.375 -21.875 C 40.375 -21.3125 40.347656 -20.671875 40.296875 -19.953125 C 40.242188 -19.242188 40.066406 -18.148438 39.765625 -16.671875 Z M 34.109375 -21.875 C 34.109375 -24.519531 33.238281 -26.75 31.5 -28.5625 C 29.769531 -30.375 27.601562 -31.28125 25 -31.28125 C 22.550781 -31.28125 20.078125 -30.375 17.578125 -28.5625 C 15.085938 -26.75 13.4375 -24.519531 12.625 -21.875 Z M 34.109375 -21.875 "/></g></g></g><g fill="#737373" fill-opacity="1"><g transform="translate(500.074023, 332.550648)"><g><path d="M 34.5625 0 L 28.453125 0 L 31.734375 -20.796875 C 31.984375 -22.679688 32.109375 -24.132812 32.109375 -25.15625 C 32.109375 -27.394531 31.570312 -28.972656 30.5 -29.890625 C 29.4375 -30.816406 27.859375 -31.28125 25.765625 -31.28125 C 22.660156 -31.28125 20.226562 -30.179688 18.46875 -27.984375 C 16.707031 -25.796875 15.445312 -22.332031 14.6875 -17.59375 L 11.921875 0 L 5.8125 0 L 11.46875 -35.9375 L 17.59375 -35.9375 L 16.90625 -31.578125 L 17.046875 -31.578125 C 18.628906 -33.316406 20.347656 -34.644531 22.203125 -35.5625 C 24.066406 -36.476562 26.046875 -36.9375 28.140625 -36.9375 C 31.753906 -36.882812 34.363281 -35.988281 35.96875 -34.25 C 37.582031 -32.519531 38.390625 -29.921875 38.390625 -26.453125 C 38.390625 -25.742188 38.335938 -24.863281 38.234375 -23.8125 C 38.128906 -22.769531 38.003906 -21.816406 37.859375 -20.953125 Z M 34.5625 0 "/></g></g></g><g fill="#737373" fill-opacity="1"><g transform="translate(540.447402, 332.550648)"><g><path d="M 19.953125 -48.859375 L 17.890625 -35.9375 L 24.3125 -35.9375 L 23.46875 -30.28125 L 17.046875 -30.28125 L 12.234375 0 L 6.125 0 L 10.9375 -30.28125 L 7.1875 -30.28125 L 8.03125 -35.9375 L 11.78125 -35.9375 L 13.84375 -48.859375 Z M 19.953125 -48.859375 "/></g></g></g><g fill="#737373" fill-opacity="1"><g transform="translate(558.798963, 332.550648)"><g><path d="M 5.203125 -14.765625 C 5.203125 -18.628906 6.257812 -22.296875 8.375 -25.765625 C 10.488281 -29.234375 13.238281 -31.960938 16.625 -33.953125 C 20.019531 -35.941406 23.578125 -36.9375 27.296875 -36.9375 C 32.035156 -36.9375 35.910156 -35.414062 38.921875 -32.375 C 41.929688 -29.34375 43.4375 -25.507812 43.4375 -20.875 C 43.4375 -17.15625 42.398438 -13.585938 40.328125 -10.171875 C 38.265625 -6.753906 35.515625 -4.035156 32.078125 -2.015625 C 28.640625 -0.00390625 25.035156 1 21.265625 1 C 18.203125 1 15.457031 0.320312 13.03125 -1.03125 C 10.613281 -2.382812 8.703125 -4.269531 7.296875 -6.6875 C 5.898438 -9.113281 5.203125 -11.804688 5.203125 -14.765625 Z M 26.3125 -31.28125 C 22.332031 -31.28125 18.847656 -29.722656 15.859375 -26.609375 C 12.878906 -23.503906 11.390625 -19.832031 11.390625 -15.59375 C 11.390625 -12.382812 12.382812 -9.757812 14.375 -7.71875 C 16.363281 -5.6875 18.960938 -4.671875 22.171875 -4.671875 C 26.253906 -4.671875 29.785156 -6.210938 32.765625 -9.296875 C 35.742188 -12.378906 37.234375 -16.035156 37.234375 -20.265625 C 37.234375 -23.523438 36.238281 -26.175781 34.25 -28.21875 C 32.269531 -30.257812 29.625 -31.28125 26.3125 -31.28125 Z M 26.3125 -31.28125 "/></g></g></g><g fill="#737373" fill-opacity="1"><g transform="translate(601.772165, 332.550648)"><g/></g></g><g fill="#737373" fill-opacity="1"><g transform="translate(623.793892, 332.550648)"><g><path d="M 12.625 -35.9375 L 21.265625 -10.171875 L 36.9375 -35.9375 L 43.890625 -35.9375 L 8.484375 20.1875 L 1.53125 20.1875 L 16.90625 -3.359375 L 5.5 -35.9375 Z M 12.625 -35.9375 "/></g></g></g><g fill="#737373" fill-opacity="1"><g transform="translate(661.873372, 332.550648)"><g/></g></g><g fill="#737373" fill-opacity="1"><g transform="translate(685.424533, 332.550648)"><g><path d="M 39.3125 -46.421875 C 38.34375 -48.710938 37.15625 -50.328125 35.75 -51.265625 C 34.34375 -52.210938 32.570312 -52.6875 30.4375 -52.6875 C 27.582031 -52.6875 25.019531 -51.675781 22.75 -49.65625 C 20.476562 -47.644531 19.34375 -45.265625 19.34375 -42.515625 C 19.34375 -40.785156 20.082031 -39.269531 21.5625 -37.96875 C 23.039062 -36.664062 26.40625 -34.84375 31.65625 -32.5 C 34.664062 -31.226562 37.148438 -29.53125 39.109375 -27.40625 C 41.078125 -25.289062 42.0625 -22.757812 42.0625 -19.8125 C 42.0625 -16.1875 41.09375 -12.765625 39.15625 -9.546875 C 37.21875 -6.335938 34.59375 -3.773438 31.28125 -1.859375 C 27.96875 0.046875 24.472656 1 20.796875 1 C 16.265625 1 12.609375 -0.320312 9.828125 -2.96875 C 7.046875 -5.625 5.53125 -9.273438 5.28125 -13.921875 L 11.78125 -15.671875 C 11.78125 -12.460938 12.695312 -9.875 14.53125 -7.90625 C 16.363281 -5.945312 18.734375 -4.96875 21.640625 -4.96875 C 25.160156 -4.96875 28.347656 -6.265625 31.203125 -8.859375 C 34.054688 -11.460938 35.484375 -14.5 35.484375 -17.96875 C 35.484375 -19.957031 34.957031 -21.550781 33.90625 -22.75 C 32.863281 -23.945312 31.585938 -24.960938 30.078125 -25.796875 C 28.578125 -26.640625 26.503906 -27.675781 23.859375 -28.90625 C 19.773438 -30.738281 16.90625 -32.675781 15.25 -34.71875 C 13.59375 -36.757812 12.765625 -38.953125 12.765625 -41.296875 C 12.765625 -44.503906 13.617188 -47.445312 15.328125 -50.125 C 17.035156 -52.800781 19.328125 -54.890625 22.203125 -56.390625 C 25.085938 -57.898438 28.160156 -58.65625 31.421875 -58.65625 C 34.585938 -58.65625 37.34375 -57.890625 39.6875 -56.359375 C 42.03125 -54.828125 43.789062 -52.609375 44.96875 -49.703125 Z M 39.3125 -46.421875 "/></g></g></g><g fill="#737373" fill-opacity="1"><g transform="translate(728.168304, 332.550648)"><g><path d="M 5.203125 -14.765625 C 5.203125 -18.628906 6.257812 -22.296875 8.375 -25.765625 C 10.488281 -29.234375 13.238281 -31.960938 16.625 -33.953125 C 20.019531 -35.941406 23.578125 -36.9375 27.296875 -36.9375 C 32.035156 -36.9375 35.910156 -35.414062 38.921875 -32.375 C 41.929688 -29.34375 43.4375 -25.507812 43.4375 -20.875 C 43.4375 -17.15625 42.398438 -13.585938 40.328125 -10.171875 C 38.265625 -6.753906 35.515625 -4.035156 32.078125 -2.015625 C 28.640625 -0.00390625 25.035156 1 21.265625 1 C 18.203125 1 15.457031 0.320312 13.03125 -1.03125 C 10.613281 -2.382812 8.703125 -4.269531 7.296875 -6.6875 C 5.898438 -9.113281 5.203125 -11.804688 5.203125 -14.765625 Z M 26.3125 -31.28125 C 22.332031 -31.28125 18.847656 -29.722656 15.859375 -26.609375 C 12.878906 -23.503906 11.390625 -19.832031 11.390625 -15.59375 C 11.390625 -12.382812 12.382812 -9.757812 14.375 -7.71875 C 16.363281 -5.6875 18.960938 -4.671875 22.171875 -4.671875 C 26.253906 -4.671875 29.785156 -6.210938 32.765625 -9.296875 C 35.742188 -12.378906 37.234375 -16.035156 37.234375 -20.265625 C 37.234375 -23.523438 36.238281 -26.175781 34.25 -28.21875 C 32.269531 -30.257812 29.625 -31.28125 26.3125 -31.28125 Z M 26.3125 -31.28125 "/></g></g></g><g fill="#737373" fill-opacity="1"><g transform="translate(771.141506, 332.550648)"><g><path d="M 21.796875 -63.09375 L 11.78125 0 L 5.65625 0 L 15.671875 -63.09375 Z M 21.796875 -63.09375 "/></g></g></g><g fill="#737373" fill-opacity="1"><g transform="translate(788.498987, 332.550648)"><g><path d="M 17.125 -35.9375 L 14.0625 -16.4375 C 13.707031 -14.144531 13.53125 -12.335938 13.53125 -11.015625 C 13.53125 -8.921875 14.050781 -7.335938 15.09375 -6.265625 C 16.144531 -5.203125 17.867188 -4.671875 20.265625 -4.671875 C 23.066406 -4.671875 25.242188 -5.429688 26.796875 -6.953125 C 28.359375 -8.484375 29.46875 -11.316406 30.125 -15.453125 L 33.34375 -35.9375 L 39.453125 -35.9375 L 36.171875 -14.90625 C 35.359375 -9.707031 33.5625 -5.753906 30.78125 -3.046875 C 28 -0.347656 24.1875 1 19.34375 1 C 15.320312 1 12.328125 0.03125 10.359375 -1.90625 C 8.398438 -3.84375 7.421875 -6.722656 7.421875 -10.546875 C 7.421875 -11.828125 7.570312 -13.535156 7.875 -15.671875 L 11.015625 -35.9375 Z M 17.125 -35.9375 "/></g></g></g><g fill="#737373" fill-opacity="1"><g transform="translate(827.648948, 332.550648)"><g><path d="M 36.46875 -25.234375 L 36.328125 -25.234375 C 35.203125 -27.066406 33.796875 -28.53125 32.109375 -29.625 C 30.429688 -30.726562 28.367188 -31.28125 25.921875 -31.28125 C 22.046875 -31.28125 18.601562 -29.6875 15.59375 -26.5 C 12.59375 -23.3125 11.09375 -19.675781 11.09375 -15.59375 C 11.09375 -12.382812 12.070312 -9.757812 14.03125 -7.71875 C 15.988281 -5.6875 18.5 -4.671875 21.5625 -4.671875 C 24.21875 -4.671875 26.550781 -5.21875 28.5625 -6.3125 C 30.570312 -7.40625 32.472656 -8.921875 34.265625 -10.859375 L 34.40625 -10.859375 L 33.1875 -2.671875 C 31.195312 -1.503906 29.21875 -0.601562 27.25 0.03125 C 25.289062 0.675781 23.242188 1 21.109375 1 C 16.316406 1 12.398438 -0.476562 9.359375 -3.4375 C 6.328125 -6.394531 4.8125 -10.171875 4.8125 -14.765625 C 4.8125 -18.734375 5.867188 -22.425781 7.984375 -25.84375 C 10.109375 -29.257812 12.898438 -31.960938 16.359375 -33.953125 C 19.828125 -35.941406 23.445312 -36.9375 27.21875 -36.9375 C 29.3125 -36.9375 31.1875 -36.65625 32.84375 -36.09375 C 34.5 -35.53125 36.144531 -34.613281 37.78125 -33.34375 Z M 36.46875 -25.234375 "/></g></g></g><g fill="#737373" fill-opacity="1"><g transform="translate(864.046192, 332.550648)"><g><path d="M 13.375 -48.859375 C 13.375 -50.140625 13.921875 -51.285156 15.015625 -52.296875 C 16.117188 -53.316406 17.28125 -53.828125 18.5 -53.828125 C 19.570312 -53.828125 20.460938 -53.484375 21.171875 -52.796875 C 21.890625 -52.109375 22.25 -51.253906 22.25 -50.234375 C 22.25 -48.910156 21.738281 -47.722656 20.71875 -46.671875 C 19.695312 -45.628906 18.5 -45.109375 17.125 -45.109375 C 16.050781 -45.109375 15.15625 -45.453125 14.4375 -46.140625 C 13.726562 -46.835938 13.375 -47.742188 13.375 -48.859375 Z M 18.734375 -35.9375 L 13.078125 0 L 6.953125 0 L 12.625 -35.9375 Z M 18.734375 -35.9375 "/></g></g></g><g fill="#737373" fill-opacity="1"><g transform="translate(884.080034, 332.550648)"><g><path d="M 5.203125 -14.765625 C 5.203125 -18.628906 6.257812 -22.296875 8.375 -25.765625 C 10.488281 -29.234375 13.238281 -31.960938 16.625 -33.953125 C 20.019531 -35.941406 23.578125 -36.9375 27.296875 -36.9375 C 32.035156 -36.9375 35.910156 -35.414062 38.921875 -32.375 C 41.929688 -29.34375 43.4375 -25.507812 43.4375 -20.875 C 43.4375 -17.15625 42.398438 -13.585938 40.328125 -10.171875 C 38.265625 -6.753906 35.515625 -4.035156 32.078125 -2.015625 C 28.640625 -0.00390625 25.035156 1 21.265625 1 C 18.203125 1 15.457031 0.320312 13.03125 -1.03125 C 10.613281 -2.382812 8.703125 -4.269531 7.296875 -6.6875 C 5.898438 -9.113281 5.203125 -11.804688 5.203125 -14.765625 Z M 26.3125 -31.28125 C 22.332031 -31.28125 18.847656 -29.722656 15.859375 -26.609375 C 12.878906 -23.503906 11.390625 -19.832031 11.390625 -15.59375 C 11.390625 -12.382812 12.382812 -9.757812 14.375 -7.71875 C 16.363281 -5.6875 18.960938 -4.671875 22.171875 -4.671875 C 26.253906 -4.671875 29.785156 -6.210938 32.765625 -9.296875 C 35.742188 -12.378906 37.234375 -16.035156 37.234375 -20.265625 C 37.234375 -23.523438 36.238281 -26.175781 34.25 -28.21875 C 32.269531 -30.257812 29.625 -31.28125 26.3125 -31.28125 Z M 26.3125 -31.28125 "/></g></g></g><g fill="#737373" fill-opacity="1"><g transform="translate(927.053236, 332.550648)"><g><path d="M 34.5625 0 L 28.453125 0 L 31.734375 -20.796875 C 31.984375 -22.679688 32.109375 -24.132812 32.109375 -25.15625 C 32.109375 -27.394531 31.570312 -28.972656 30.5 -29.890625 C 29.4375 -30.816406 27.859375 -31.28125 25.765625 -31.28125 C 22.660156 -31.28125 20.226562 -30.179688 18.46875 -27.984375 C 16.707031 -25.796875 15.445312 -22.332031 14.6875 -17.59375 L 11.921875 0 L 5.8125 0 L 11.46875 -35.9375 L 17.59375 -35.9375 L 16.90625 -31.578125 L 17.046875 -31.578125 C 18.628906 -33.316406 20.347656 -34.644531 22.203125 -35.5625 C 24.066406 -36.476562 26.046875 -36.9375 28.140625 -36.9375 C 31.753906 -36.882812 34.363281 -35.988281 35.96875 -34.25 C 37.582031 -32.519531 38.390625 -29.921875 38.390625 -26.453125 C 38.390625 -25.742188 38.335938 -24.863281 38.234375 -23.8125 C 38.128906 -22.769531 38.003906 -21.816406 37.859375 -20.953125 Z M 34.5625 0 "/></g></g></g><g fill="#737373" fill-opacity="1"><g transform="translate(967.426616, 332.550648)"><g><path d="M 39.765625 -16.671875 L 11.546875 -16.671875 C 11.492188 -16.210938 11.453125 -15.84375 11.421875 -15.5625 C 11.398438 -15.28125 11.390625 -15.015625 11.390625 -14.765625 C 11.390625 -11.804688 12.296875 -9.382812 14.109375 -7.5 C 15.921875 -5.613281 18.328125 -4.671875 21.328125 -4.671875 C 23.628906 -4.671875 25.75 -5.253906 27.6875 -6.421875 C 29.625 -7.597656 31.5625 -9.484375 33.5 -12.078125 L 38.234375 -9.09375 C 36.046875 -5.882812 33.367188 -3.398438 30.203125 -1.640625 C 27.046875 0.117188 23.628906 1 19.953125 1 C 15.472656 1 11.867188 -0.375 9.140625 -3.125 C 6.410156 -5.882812 5.046875 -9.457031 5.046875 -13.84375 C 5.046875 -17.613281 5.882812 -21.269531 7.5625 -24.8125 C 9.25 -28.351562 11.695312 -31.257812 14.90625 -33.53125 C 18.125 -35.800781 21.769531 -36.9375 25.84375 -36.9375 C 30.28125 -36.9375 33.8125 -35.570312 36.4375 -32.84375 C 39.0625 -30.113281 40.375 -26.457031 40.375 -21.875 C 40.375 -21.3125 40.347656 -20.671875 40.296875 -19.953125 C 40.242188 -19.242188 40.066406 -18.148438 39.765625 -16.671875 Z M 34.109375 -21.875 C 34.109375 -24.519531 33.238281 -26.75 31.5 -28.5625 C 29.769531 -30.375 27.601562 -31.28125 25 -31.28125 C 22.550781 -31.28125 20.078125 -30.375 17.578125 -28.5625 C 15.085938 -26.75 13.4375 -24.519531 12.625 -21.875 Z M 34.109375 -21.875 "/></g></g></g><g fill="#737373" fill-opacity="1"><g transform="translate(1007.111793, 332.550648)"><g><path d="M 24.703125 -27.609375 C 24.347656 -28.773438 23.773438 -29.675781 22.984375 -30.3125 C 22.191406 -30.957031 21.3125 -31.28125 20.34375 -31.28125 C 19.0625 -31.28125 17.898438 -30.816406 16.859375 -29.890625 C 15.816406 -28.972656 15.296875 -27.90625 15.296875 -26.6875 C 15.296875 -25.769531 15.710938 -24.925781 16.546875 -24.15625 C 17.390625 -23.394531 19.265625 -22.429688 22.171875 -21.265625 C 24.773438 -20.140625 26.648438 -18.898438 27.796875 -17.546875 C 28.941406 -16.191406 29.515625 -14.570312 29.515625 -12.6875 C 29.515625 -10.289062 28.898438 -8.0625 27.671875 -6 C 26.453125 -3.9375 24.734375 -2.253906 22.515625 -0.953125 C 20.296875 0.347656 17.890625 1 15.296875 1 C 12.335938 1 9.875 0.207031 7.90625 -1.375 C 5.945312 -2.957031 4.6875 -5.203125 4.125 -8.109375 L 9.9375 -10.40625 C 10.550781 -8.257812 11.34375 -6.765625 12.3125 -5.921875 C 13.28125 -5.085938 14.601562 -4.671875 16.28125 -4.671875 C 18.125 -4.671875 19.71875 -5.289062 21.0625 -6.53125 C 22.414062 -7.78125 23.09375 -9.25 23.09375 -10.9375 C 23.09375 -12.414062 22.519531 -13.585938 21.375 -14.453125 C 20.226562 -15.316406 18.738281 -16.109375 16.90625 -16.828125 C 14.25 -17.941406 12.304688 -19.132812 11.078125 -20.40625 C 9.859375 -21.6875 9.25 -23.242188 9.25 -25.078125 C 9.25 -28.242188 10.484375 -31.007812 12.953125 -33.375 C 15.429688 -35.75 18.351562 -36.9375 21.71875 -36.9375 C 23.65625 -36.9375 25.425781 -36.320312 27.03125 -35.09375 C 28.632812 -33.875 29.71875 -32.269531 30.28125 -30.28125 Z M 24.703125 -27.609375 "/></g></g></g><g fill="#737373" fill-opacity="1"><g transform="translate(1037.621281, 332.550648)"><g/></g></g><g fill="#737373" fill-opacity="1"><g transform="translate(1061.172396, 332.550648)"><g><path d="M 21.640625 -57.65625 L 17.96875 -34.265625 L 47.484375 -34.265625 L 51.15625 -57.65625 L 57.578125 -57.65625 L 48.484375 0 L 42.0625 0 L 46.5625 -28.296875 L 17.046875 -28.296875 L 12.546875 0 L 6.125 0 L 15.21875 -57.65625 Z M 21.640625 -57.65625 "/></g></g></g><g fill="#737373" fill-opacity="1"><g transform="translate(1115.768217, 332.550648)"><g><path d="M 13.375 -48.859375 C 13.375 -50.140625 13.921875 -51.285156 15.015625 -52.296875 C 16.117188 -53.316406 17.28125 -53.828125 18.5 -53.828125 C 19.570312 -53.828125 20.460938 -53.484375 21.171875 -52.796875 C 21.890625 -52.109375 22.25 -51.253906 22.25 -50.234375 C 22.25 -48.910156 21.738281 -47.722656 20.71875 -46.671875 C 19.695312 -45.628906 18.5 -45.109375 17.125 -45.109375 C 16.050781 -45.109375 15.15625 -45.453125 14.4375 -46.140625 C 13.726562 -46.835938 13.375 -47.742188 13.375 -48.859375 Z M 18.734375 -35.9375 L 13.078125 0 L 6.953125 0 L 12.625 -35.9375 Z M 18.734375 -35.9375 "/></g></g></g><g fill="#737373" fill-opacity="1"><g transform="translate(1135.80206, 332.550648)"><g><path d="M 12.546875 -5.046875 L 12.390625 -5.046875 L 8.40625 20.1875 L 2.296875 20.1875 L 11.171875 -35.9375 L 17.28125 -35.9375 L 16.515625 -30.8125 L 16.671875 -30.8125 C 20.492188 -34.894531 24.925781 -36.9375 29.96875 -36.9375 C 34.40625 -36.9375 37.9375 -35.484375 40.5625 -32.578125 C 43.1875 -29.671875 44.5 -25.921875 44.5 -21.328125 C 44.5 -17.710938 43.644531 -14.171875 41.9375 -10.703125 C 40.226562 -7.234375 37.796875 -4.414062 34.640625 -2.25 C 31.484375 -0.0820312 27.890625 1 23.859375 1 C 21.410156 1 19.203125 0.488281 17.234375 -0.53125 C 15.273438 -1.550781 13.710938 -3.054688 12.546875 -5.046875 Z M 27.828125 -31.28125 C 24.160156 -31.28125 20.9375 -29.710938 18.15625 -26.578125 C 15.382812 -23.441406 14 -19.753906 14 -15.515625 C 14 -12.410156 14.835938 -9.835938 16.515625 -7.796875 C 18.203125 -5.753906 20.625 -4.710938 23.78125 -4.671875 C 26.632812 -4.671875 29.171875 -5.445312 31.390625 -7 C 33.609375 -8.550781 35.300781 -10.585938 36.46875 -13.109375 C 37.644531 -15.640625 38.234375 -18.253906 38.234375 -20.953125 C 38.234375 -23.859375 37.351562 -26.304688 35.59375 -28.296875 C 33.832031 -30.285156 31.242188 -31.28125 27.828125 -31.28125 Z M 27.828125 -31.28125 "/></g></g></g><g fill="#737373" fill-opacity="1"><g transform="translate(1179.922234, 332.550648)"><g><path d="M 5.203125 -14.765625 C 5.203125 -18.628906 6.257812 -22.296875 8.375 -25.765625 C 10.488281 -29.234375 13.238281 -31.960938 16.625 -33.953125 C 20.019531 -35.941406 23.578125 -36.9375 27.296875 -36.9375 C 32.035156 -36.9375 35.910156 -35.414062 38.921875 -32.375 C 41.929688 -29.34375 43.4375 -25.507812 43.4375 -20.875 C 43.4375 -17.15625 42.398438 -13.585938 40.328125 -10.171875 C 38.265625 -6.753906 35.515625 -4.035156 32.078125 -2.015625 C 28.640625 -0.00390625 25.035156 1 21.265625 1 C 18.203125 1 15.457031 0.320312 13.03125 -1.03125 C 10.613281 -2.382812 8.703125 -4.269531 7.296875 -6.6875 C 5.898438 -9.113281 5.203125 -11.804688 5.203125 -14.765625 Z M 26.3125 -31.28125 C 22.332031 -31.28125 18.847656 -29.722656 15.859375 -26.609375 C 12.878906 -23.503906 11.390625 -19.832031 11.390625 -15.59375 C 11.390625 -12.382812 12.382812 -9.757812 14.375 -7.71875 C 16.363281 -5.6875 18.960938 -4.671875 22.171875 -4.671875 C 26.253906 -4.671875 29.785156 -6.210938 32.765625 -9.296875 C 35.742188 -12.378906 37.234375 -16.035156 37.234375 -20.265625 C 37.234375 -23.523438 36.238281 -26.175781 34.25 -28.21875 C 32.269531 -30.257812 29.625 -31.28125 26.3125 -31.28125 Z M 26.3125 -31.28125 "/></g></g></g><g fill="#737373" fill-opacity="1"><g transform="translate(1222.895436, 332.550648)"><g><path d="M 19.953125 -48.859375 L 17.890625 -35.9375 L 24.3125 -35.9375 L 23.46875 -30.28125 L 17.046875 -30.28125 L 12.234375 0 L 6.125 0 L 10.9375 -30.28125 L 7.1875 -30.28125 L 8.03125 -35.9375 L 11.78125 -35.9375 L 13.84375 -48.859375 Z M 19.953125 -48.859375 "/></g></g></g><g fill="#737373" fill-opacity="1"><g transform="translate(1241.246997, 332.550648)"><g><path d="M 39.765625 -16.671875 L 11.546875 -16.671875 C 11.492188 -16.210938 11.453125 -15.84375 11.421875 -15.5625 C 11.398438 -15.28125 11.390625 -15.015625 11.390625 -14.765625 C 11.390625 -11.804688 12.296875 -9.382812 14.109375 -7.5 C 15.921875 -5.613281 18.328125 -4.671875 21.328125 -4.671875 C 23.628906 -4.671875 25.75 -5.253906 27.6875 -6.421875 C 29.625 -7.597656 31.5625 -9.484375 33.5 -12.078125 L 38.234375 -9.09375 C 36.046875 -5.882812 33.367188 -3.398438 30.203125 -1.640625 C 27.046875 0.117188 23.628906 1 19.953125 1 C 15.472656 1 11.867188 -0.375 9.140625 -3.125 C 6.410156 -5.882812 5.046875 -9.457031 5.046875 -13.84375 C 5.046875 -17.613281 5.882812 -21.269531 7.5625 -24.8125 C 9.25 -28.351562 11.695312 -31.257812 14.90625 -33.53125 C 18.125 -35.800781 21.769531 -36.9375 25.84375 -36.9375 C 30.28125 -36.9375 33.8125 -35.570312 36.4375 -32.84375 C 39.0625 -30.113281 40.375 -26.457031 40.375 -21.875 C 40.375 -21.3125 40.347656 -20.671875 40.296875 -19.953125 C 40.242188 -19.242188 40.066406 -18.148438 39.765625 -16.671875 Z M 34.109375 -21.875 C 34.109375 -24.519531 33.238281 -26.75 31.5 -28.5625 C 29.769531 -30.375 27.601562 -31.28125 25 -31.28125 C 22.550781 -31.28125 20.078125 -30.375 17.578125 -28.5625 C 15.085938 -26.75 13.4375 -24.519531 12.625 -21.875 Z M 34.109375 -21.875 "/></g></g></g><g fill="#737373" fill-opacity="1"><g transform="translate(1280.932175, 332.550648)"><g><path d="M 36.46875 -25.234375 L 36.328125 -25.234375 C 35.203125 -27.066406 33.796875 -28.53125 32.109375 -29.625 C 30.429688 -30.726562 28.367188 -31.28125 25.921875 -31.28125 C 22.046875 -31.28125 18.601562 -29.6875 15.59375 -26.5 C 12.59375 -23.3125 11.09375 -19.675781 11.09375 -15.59375 C 11.09375 -12.382812 12.070312 -9.757812 14.03125 -7.71875 C 15.988281 -5.6875 18.5 -4.671875 21.5625 -4.671875 C 24.21875 -4.671875 26.550781 -5.21875 28.5625 -6.3125 C 30.570312 -7.40625 32.472656 -8.921875 34.265625 -10.859375 L 34.40625 -10.859375 L 33.1875 -2.671875 C 31.195312 -1.503906 29.21875 -0.601562 27.25 0.03125 C 25.289062 0.675781 23.242188 1 21.109375 1 C 16.316406 1 12.398438 -0.476562 9.359375 -3.4375 C 6.328125 -6.394531 4.8125 -10.171875 4.8125 -14.765625 C 4.8125 -18.734375 5.867188 -22.425781 7.984375 -25.84375 C 10.109375 -29.257812 12.898438 -31.960938 16.359375 -33.953125 C 19.828125 -35.941406 23.445312 -36.9375 27.21875 -36.9375 C 29.3125 -36.9375 31.1875 -36.65625 32.84375 -36.09375 C 34.5 -35.53125 36.144531 -34.613281 37.78125 -33.34375 Z M 36.46875 -25.234375 "/></g></g></g><g fill="#737373" fill-opacity="1"><g transform="translate(1317.329419, 332.550648)"><g><path d="M 37.390625 -30.8125 L 38.15625 -35.9375 L 44.28125 -35.9375 L 38.609375 0 L 32.5 0 L 33.265625 -4.96875 L 33.109375 -4.96875 C 29.335938 -0.988281 24.878906 1 19.734375 1 C 15.398438 1 11.90625 -0.453125 9.25 -3.359375 C 6.601562 -6.265625 5.28125 -9.910156 5.28125 -14.296875 C 5.28125 -17.972656 6.132812 -21.554688 7.84375 -25.046875 C 9.550781 -28.535156 11.984375 -31.390625 15.140625 -33.609375 C 18.296875 -35.828125 21.863281 -36.9375 25.84375 -36.9375 C 28.289062 -36.9375 30.492188 -36.398438 32.453125 -35.328125 C 34.421875 -34.253906 36.015625 -32.75 37.234375 -30.8125 Z M 25.609375 -31.28125 C 21.835938 -31.28125 18.578125 -29.6875 15.828125 -26.5 C 13.078125 -23.3125 11.703125 -19.675781 11.703125 -15.59375 C 11.703125 -12.332031 12.601562 -9.695312 14.40625 -7.6875 C 16.21875 -5.675781 18.578125 -4.671875 21.484375 -4.671875 C 24.597656 -4.671875 27.265625 -5.519531 29.484375 -7.21875 C 31.703125 -8.925781 33.332031 -11.015625 34.375 -13.484375 C 35.414062 -15.960938 35.9375 -18.425781 35.9375 -20.875 C 35.9375 -23.882812 35.03125 -26.367188 33.21875 -28.328125 C 31.414062 -30.296875 28.878906 -31.28125 25.609375 -31.28125 Z M 25.609375 -31.28125 "/></g></g></g><g fill="#737373" fill-opacity="1"><g transform="translate(1361.449593, 332.550648)"><g><path d="M 27 -29.671875 C 26.4375 -30.128906 25.910156 -30.507812 25.421875 -30.8125 C 24.941406 -31.125 24.316406 -31.28125 23.546875 -31.28125 C 21.359375 -31.28125 19.484375 -30.257812 17.921875 -28.21875 C 16.367188 -26.175781 15.238281 -22.890625 14.53125 -18.359375 L 11.625 0 L 5.5 0 L 11.171875 -35.9375 L 17.28125 -35.9375 L 16.671875 -32.046875 L 16.828125 -32.046875 C 18.609375 -34.023438 20.160156 -35.332031 21.484375 -35.96875 C 22.804688 -36.613281 24.160156 -36.9375 25.546875 -36.9375 C 26.609375 -36.9375 27.546875 -36.78125 28.359375 -36.46875 C 29.179688 -36.164062 30 -35.757812 30.8125 -35.25 Z M 27 -29.671875 "/></g></g></g><g fill="#737373" fill-opacity="1"><g transform="translate(1387.065223, 332.550648)"><g><path d="M 13.375 -48.859375 C 13.375 -50.140625 13.921875 -51.285156 15.015625 -52.296875 C 16.117188 -53.316406 17.28125 -53.828125 18.5 -53.828125 C 19.570312 -53.828125 20.460938 -53.484375 21.171875 -52.796875 C 21.890625 -52.109375 22.25 -51.253906 22.25 -50.234375 C 22.25 -48.910156 21.738281 -47.722656 20.71875 -46.671875 C 19.695312 -45.628906 18.5 -45.109375 17.125 -45.109375 C 16.050781 -45.109375 15.15625 -45.453125 14.4375 -46.140625 C 13.726562 -46.835938 13.375 -47.742188 13.375 -48.859375 Z M 18.734375 -35.9375 L 13.078125 0 L 6.953125 0 L 12.625 -35.9375 Z M 18.734375 -35.9375 "/></g></g></g><g fill="#737373" fill-opacity="1"><g transform="translate(1407.099065, 332.550648)"><g><path d="M 37.390625 -30.8125 L 38.15625 -35.9375 L 44.28125 -35.9375 L 38.609375 0 L 32.5 0 L 33.265625 -4.96875 L 33.109375 -4.96875 C 29.335938 -0.988281 24.878906 1 19.734375 1 C 15.398438 1 11.90625 -0.453125 9.25 -3.359375 C 6.601562 -6.265625 5.28125 -9.910156 5.28125 -14.296875 C 5.28125 -17.972656 6.132812 -21.554688 7.84375 -25.046875 C 9.550781 -28.535156 11.984375 -31.390625 15.140625 -33.609375 C 18.296875 -35.828125 21.863281 -36.9375 25.84375 -36.9375 C 28.289062 -36.9375 30.492188 -36.398438 32.453125 -35.328125 C 34.421875 -34.253906 36.015625 -32.75 37.234375 -30.8125 Z M 25.609375 -31.28125 C 21.835938 -31.28125 18.578125 -29.6875 15.828125 -26.5 C 13.078125 -23.3125 11.703125 -19.675781 11.703125 -15.59375 C 11.703125 -12.332031 12.601562 -9.695312 14.40625 -7.6875 C 16.21875 -5.675781 18.578125 -4.671875 21.484375 -4.671875 C 24.597656 -4.671875 27.265625 -5.519531 29.484375 -7.21875 C 31.703125 -8.925781 33.332031 -11.015625 34.375 -13.484375 C 35.414062 -15.960938 35.9375 -18.425781 35.9375 -20.875 C 35.9375 -23.882812 35.03125 -26.367188 33.21875 -28.328125 C 31.414062 -30.296875 28.878906 -31.28125 25.609375 -31.28125 Z M 25.609375 -31.28125 "/></g></g></g><g fill="#737373" fill-opacity="1"><g transform="translate(1451.219239, 332.550648)"><g><path d="M 24.703125 -27.609375 C 24.347656 -28.773438 23.773438 -29.675781 22.984375 -30.3125 C 22.191406 -30.957031 21.3125 -31.28125 20.34375 -31.28125 C 19.0625 -31.28125 17.898438 -30.816406 16.859375 -29.890625 C 15.816406 -28.972656 15.296875 -27.90625 15.296875 -26.6875 C 15.296875 -25.769531 15.710938 -24.925781 16.546875 -24.15625 C 17.390625 -23.394531 19.265625 -22.429688 22.171875 -21.265625 C 24.773438 -20.140625 26.648438 -18.898438 27.796875 -17.546875 C 28.941406 -16.191406 29.515625 -14.570312 29.515625 -12.6875 C 29.515625 -10.289062 28.898438 -8.0625 27.671875 -6 C 26.453125 -3.9375 24.734375 -2.253906 22.515625 -0.953125 C 20.296875 0.347656 17.890625 1 15.296875 1 C 12.335938 1 9.875 0.207031 7.90625 -1.375 C 5.945312 -2.957031 4.6875 -5.203125 4.125 -8.109375 L 9.9375 -10.40625 C 10.550781 -8.257812 11.34375 -6.765625 12.3125 -5.921875 C 13.28125 -5.085938 14.601562 -4.671875 16.28125 -4.671875 C 18.125 -4.671875 19.71875 -5.289062 21.0625 -6.53125 C 22.414062 -7.78125 23.09375 -9.25 23.09375 -10.9375 C 23.09375 -12.414062 22.519531 -13.585938 21.375 -14.453125 C 20.226562 -15.316406 18.738281 -16.109375 16.90625 -16.828125 C 14.25 -17.941406 12.304688 -19.132812 11.078125 -20.40625 C 9.859375 -21.6875 9.25 -23.242188 9.25 -25.078125 C 9.25 -28.242188 10.484375 -31.007812 12.953125 -33.375 C 15.429688 -35.75 18.351562 -36.9375 21.71875 -36.9375 C 23.65625 -36.9375 25.425781 -36.320312 27.03125 -35.09375 C 28.632812 -33.875 29.71875 -32.269531 30.28125 -30.28125 Z M 24.703125 -27.609375 "/></g></g></g></svg>